<svg width="35" height="35" viewBox="0 0 35 35" fill="none" xmlns="http://www.w3.org/2000/svg">
<g clip-path="url(#clip0_105_857)">
<path d="M15.5495 26.6529L15.6429 17.9321H12.8554V15.347H15.5417V12.0845C15.5417 9.32814 17.4182 8.34705 19.0222 8.34705H21.8643V10.9321H20.0423C18.6018 10.9321 18.6018 12.03 18.6018 12.5595V15.2458H21.8098L21.3815 18.267H18.5551V26.6529H15.5417H15.5495Z" fill="#0066B1"/>
<path d="M17.5039 35C7.84872 35 0 27.1513 0 17.5039C0 7.85651 7.84872 0 17.5039 0C27.1591 0 35.0078 7.84872 35.0078 17.5039C35.0078 27.1591 27.1591 35.0078 17.5039 35.0078V35ZM17.5039 2.10234C9.0089 2.10234 2.10234 9.0089 2.10234 17.5039C2.10234 25.9989 9.0089 32.9054 17.5039 32.9054C25.9989 32.9054 32.9054 25.9989 32.9054 17.5039C32.9054 9.0089 25.9911 2.10234 17.5039 2.10234Z" fill="#0066B1"/>
</g>
<defs>
<clipPath id="clip0_105_857">
<rect width="35" height="35" fill="white"/>
</clipPath>
</defs>
</svg>
