<svg width="33" height="35" viewBox="0 0 33 35" fill="none" xmlns="http://www.w3.org/2000/svg">
<path fill-rule="evenodd" clip-rule="evenodd" d="M23.5825 34.688H9.84952C4.65575 34.688 0.431992 30.3076 0.431992 24.9212V10.6712C0.431992 5.28485 4.65575 0.90448 9.84952 0.90448H23.5825C28.7762 0.90448 33 5.28485 33 10.6712V24.9212C33 30.3076 28.7762 34.688 23.5825 34.688ZM9.84952 3.04318C5.7938 3.04318 2.49423 6.46509 2.49423 10.6712V24.9212C2.49423 29.1274 5.7938 32.5493 9.84952 32.5493H23.5825C27.6382 32.5493 30.9378 29.1274 30.9378 24.9212V10.6712C30.9378 6.46509 27.6382 3.04318 23.5825 3.04318H9.84952ZM16.9985 26.7352C12.4005 26.7352 8.65788 22.8539 8.65788 18.0854C8.65788 13.3169 12.4005 9.43554 16.9985 9.43554C21.5965 9.43554 25.3391 13.3169 25.3391 18.0854C25.3391 22.8539 21.5965 26.7352 16.9985 26.7352ZM16.9985 11.5663C13.5385 11.5663 10.7201 14.4892 10.7201 18.0775C10.7201 21.6657 13.5385 24.5886 16.9985 24.5886C20.4584 24.5886 23.2768 21.6657 23.2768 18.0775C23.2768 14.4892 20.4584 11.5663 16.9985 11.5663ZM22.5361 9.15029C22.5361 10.7662 23.804 12.089 25.3698 12.089C26.9279 12.089 28.2035 10.7662 28.2035 9.15029C28.2035 7.53439 26.9279 6.21157 25.3698 6.21157C23.8117 6.21157 22.5361 7.53439 22.5361 9.15029ZM24.5984 9.14237C24.5984 8.70671 24.9421 8.34234 25.3698 8.34234C25.7899 8.34234 26.1412 8.70671 26.1412 9.14237C26.1412 9.57803 25.7899 9.9424 25.3698 9.9424C24.9497 9.9424 24.5984 9.57803 24.5984 9.14237Z" fill="#0066B1"/>
</svg>
