<svg width="37" height="33" viewBox="0 0 37 33" fill="none" xmlns="http://www.w3.org/2000/svg">
<path fill-rule="evenodd" clip-rule="evenodd" d="M16.2703 16.2052C18.124 19.4567 21.6176 21.6533 25.6124 21.6533C27.1675 21.6533 28.6467 21.3204 29.9827 20.722L29.9321 30.8682H2.95389L3.02123 16.2052H16.2703ZM15.3667 14.1453C15.1377 13.4263 14.982 12.6749 14.9087 11.8998H3.04101L3.03069 14.1453H15.3667ZM14.9094 9.83988C15.43 4.37962 20.0323 0.0936279 25.6124 0.0936279C31.5402 0.0936279 36.3645 4.93036 36.3645 10.8735C36.3645 14.4011 34.6648 17.539 32.0434 19.5069L31.9831 31.6543C31.9831 32.3567 31.4059 32.9281 30.7053 32.9281L30.7089 32.9354H2.23878C1.49825 32.9354 0.895672 32.3312 0.895672 31.5888L0.986422 11.1828C0.986422 10.444 1.589 9.83988 2.32953 9.83988H14.9094ZM16.9185 10.8735C16.9185 6.06585 20.8172 2.15716 25.6124 2.15716C30.4076 2.15716 34.3063 6.06585 34.3063 10.8735C34.3063 15.6811 30.4076 19.5898 25.6124 19.5898C20.8172 19.5898 16.9185 15.6811 16.9185 10.8735ZM24.5851 15.5792C24.5851 16.1469 25.0461 16.6091 25.6124 16.6091C26.1787 16.6091 26.6397 16.1469 26.6397 15.5792V11.9034H30.3024C30.8687 11.9034 31.3297 11.4412 31.3297 10.8735C31.3297 10.3057 30.8687 9.84352 30.3024 9.84352H26.6397V6.17139C26.6397 5.60364 26.1787 5.14144 25.6124 5.14144C25.0461 5.14144 24.5851 5.60364 24.5851 6.17139V9.84352H20.9188C20.3525 9.84352 19.8915 10.3057 19.8915 10.8735C19.8915 11.4412 20.3525 11.9034 20.9188 11.9034H24.5851V15.5792ZM6.82347 23.3747C6.82347 23.9024 7.25182 24.3319 7.77817 24.3319C8.30452 24.3319 8.73286 23.9024 8.73286 23.3747C8.73286 22.847 8.30452 22.4176 7.77817 22.4176C7.25182 22.4176 6.82347 22.847 6.82347 23.3747ZM7.77817 20.4123C8.30543 20.4123 8.73286 19.9837 8.73286 19.4551C8.73286 18.9265 8.30543 18.498 7.77817 18.498C7.2509 18.498 6.82347 18.9265 6.82347 19.4551C6.82347 19.9837 7.2509 20.4123 7.77817 20.4123ZM6.82347 27.298C6.82347 27.8257 7.25182 28.2551 7.77817 28.2551C8.30452 28.2551 8.73286 27.8257 8.73286 27.298C8.73286 26.7703 8.30452 26.3408 7.77817 26.3408C7.25182 26.3408 6.82347 26.7703 6.82347 27.298ZM13.4991 24.3355C14.0263 24.3355 14.4538 23.907 14.4538 23.3784C14.4538 22.8497 14.0263 22.4212 13.4991 22.4212C12.9718 22.4212 12.5444 22.8497 12.5444 23.3784C12.5444 23.907 12.9718 24.3355 13.4991 24.3355ZM14.4538 19.4551C14.4538 19.9837 14.0263 20.4123 13.4991 20.4123C12.9718 20.4123 12.5444 19.9837 12.5444 19.4551C12.5444 18.9265 12.9718 18.498 13.4991 18.498C14.0263 18.498 14.4538 18.9265 14.4538 19.4551ZM13.4991 28.2697C12.9727 28.2697 12.5444 27.8402 12.5444 27.3125C12.5444 26.7848 12.9727 26.3554 13.4991 26.3554C14.0254 26.3554 14.4538 26.7848 14.4538 27.3125C14.4538 27.8402 14.0254 28.2697 13.4991 28.2697ZM20.171 27.3125C20.171 27.8412 19.7436 28.2697 19.2163 28.2697C18.6891 28.2697 18.2616 27.8412 18.2616 27.3125C18.2616 26.7839 18.6891 26.3554 19.2163 26.3554C19.7436 26.3554 20.171 26.7839 20.171 27.3125ZM19.2163 24.3355C19.7436 24.3355 20.171 23.907 20.171 23.3784C20.171 22.8497 19.7436 22.4212 19.2163 22.4212C18.6891 22.4212 18.2616 22.8497 18.2616 23.3784C18.2616 23.907 18.6891 24.3355 19.2163 24.3355ZM26.077 27.3125C26.077 27.8412 25.6496 28.2697 25.1223 28.2697C24.5951 28.2697 24.1677 27.8412 24.1677 27.3125C24.1677 26.7839 24.5951 26.3554 25.1223 26.3554C25.6496 26.3554 26.077 26.7839 26.077 27.3125ZM25.1223 24.3355C25.6496 24.3355 26.077 23.907 26.077 23.3784C26.077 22.8497 25.6496 22.4212 25.1223 22.4212C24.5951 22.4212 24.1677 22.8497 24.1677 23.3784C24.1677 23.907 24.5951 24.3355 25.1223 24.3355Z" fill="#0DDEAE"/>
</svg>
