<svg width="23" height="23" viewBox="0 0 23 23" fill="none" xmlns="http://www.w3.org/2000/svg">
<path fill-rule="evenodd" clip-rule="evenodd" d="M6.39395 4.35169C6.05948 4.35169 5.78583 4.09009 5.78583 3.77036V3.61255H1.30312L1.29021 6.31992H21.7752L21.7881 3.61255H17.7962V3.77451C17.7962 4.09424 17.5226 4.35584 17.1881 4.35584V4.35169C16.8536 4.35169 16.58 4.09009 16.58 3.77036V3.61255H7.00207V3.77451C7.00207 4.09424 6.72842 4.35584 6.39395 4.35584V4.35169ZM16.58 2.45404H7.00207V0.581332C7.00207 0.2616 6.72842 0 6.39395 0C6.05948 0 5.78583 0.2616 5.78583 0.581332V2.45404H1.0034C0.499528 2.45404 0.0912181 2.84436 0.0912181 3.32189L0 22.128C0 22.6097 0.40831 23 0.912181 23H22.0009C22.5048 23 22.9131 22.6097 22.9131 22.1321L23.0043 3.32604C23.0043 2.84436 22.596 2.45404 22.0922 2.45404H17.7962V0.581332C17.7962 0.2616 17.5226 0 17.1881 0C16.8536 0 16.58 0.2616 16.58 0.581332V2.45404ZM21.7012 21.8373H1.21624L1.28467 7.48258H21.7697L21.7012 21.8373ZM6.26364 15.4385C5.75543 15.4385 5.34277 15.044 5.34277 14.5582C5.34277 14.0724 5.75543 13.6779 6.26364 13.6779C6.77186 13.6779 7.18451 14.0724 7.18451 14.5582C7.18451 15.044 6.77186 15.4385 6.26364 15.4385ZM7.18451 10.9415C7.18451 11.4277 6.77222 11.8218 6.26364 11.8218C5.75506 11.8218 5.34277 11.4277 5.34277 10.9415C5.34277 10.4553 5.75506 10.0612 6.26364 10.0612C6.77222 10.0612 7.18451 10.4553 7.18451 10.9415ZM6.26364 19.0552C5.75543 19.0552 5.34277 18.6608 5.34277 18.1749C5.34277 17.6891 5.75543 17.2946 6.26364 17.2946C6.77186 17.2946 7.18451 17.6891 7.18451 18.1749C7.18451 18.6608 6.77186 19.0552 6.26364 19.0552ZM12.7141 14.5582C12.7141 15.0444 12.3018 15.4385 11.7932 15.4385C11.2846 15.4385 10.8723 15.0444 10.8723 14.5582C10.8723 14.072 11.2846 13.6779 11.7932 13.6779C12.3018 13.6779 12.7141 14.072 12.7141 14.5582ZM11.7932 11.8218C12.3018 11.8218 12.7141 11.4277 12.7141 10.9415C12.7141 10.4553 12.3018 10.0612 11.7932 10.0612C11.2846 10.0612 10.8723 10.4553 10.8723 10.9415C10.8723 11.4277 11.2846 11.8218 11.7932 11.8218ZM10.8723 18.1874C10.8723 18.6732 11.285 19.0677 11.7932 19.0677C12.3014 19.0677 12.7141 18.6732 12.7141 18.1874C12.7141 17.7016 12.3014 17.3071 11.7932 17.3071C11.285 17.3071 10.8723 17.7016 10.8723 18.1874ZM17.3228 15.4385C17.8313 15.4385 18.2436 15.0444 18.2436 14.5582C18.2436 14.072 17.8313 13.6779 17.3228 13.6779C16.8142 13.6779 16.4019 14.072 16.4019 14.5582C16.4019 15.0444 16.8142 15.4385 17.3228 15.4385ZM18.2436 10.9415C18.2436 11.4277 17.8313 11.8218 17.3228 11.8218C16.8142 11.8218 16.4019 11.4277 16.4019 10.9415C16.4019 10.4553 16.8142 10.0612 17.3228 10.0612C17.8313 10.0612 18.2436 10.4553 18.2436 10.9415Z" fill="#4D4C4C"/>
</svg>
