<svg width="22" height="23" viewBox="0 0 22 23" fill="none" xmlns="http://www.w3.org/2000/svg">
<path fill-rule="evenodd" clip-rule="evenodd" d="M17.0225 0.581332V2.45404H21.1316C21.6136 2.45404 22.0042 2.84436 22.0042 3.32604L21.9875 6.9303L21.9834 6.92615H0.0706327L0.0872521 3.32189C0.0872521 2.84436 0.477809 2.45404 0.959773 2.45404H5.53428V0.581332C5.53428 0.2616 5.79603 0 6.11596 0C6.43588 0 6.69764 0.2616 6.69764 0.581332V2.45404H15.8591V0.581332C15.8591 0.2616 16.1209 0 16.4408 0C16.7607 0 17.0225 0.2616 17.0225 0.581332ZM0 22.1238L0.0706327 8.08466V8.08051H21.9875L21.9169 22.128C21.9169 22.6055 21.5263 22.9958 21.0444 22.9958H0.872521C0.390557 22.9958 0 22.6055 0 22.1238ZM5.11048 18.1874C5.11048 18.6732 5.50519 19.0677 5.99131 19.0677C6.47743 19.0677 6.87214 18.6732 6.87214 18.1874C6.87214 17.7016 6.47743 17.3071 5.99131 17.3071C5.50519 17.3071 5.11048 17.7016 5.11048 18.1874ZM5.11048 14.5582C5.11048 15.044 5.50519 15.4385 5.99131 15.4385C6.47743 15.4385 6.87214 15.044 6.87214 14.5582C6.87214 14.0724 6.47743 13.6779 5.99131 13.6779C5.50519 13.6779 5.11048 14.0724 5.11048 14.5582ZM5.11048 10.9415C5.11048 11.4273 5.50519 11.8218 5.99131 11.8218C6.47743 11.8218 6.87214 11.4273 6.87214 10.9415C6.87214 10.4557 6.47743 10.0612 5.99131 10.0612C5.50519 10.0612 5.11048 10.4557 5.11048 10.9415ZM10.3996 18.1874C10.3996 18.6732 10.7943 19.0677 11.2805 19.0677C11.7666 19.0677 12.1613 18.6732 12.1613 18.1874C12.1613 17.7016 11.7666 17.3071 11.2805 17.3071C10.7943 17.3071 10.3996 17.7016 10.3996 18.1874ZM10.3996 14.5582C10.3996 15.044 10.7943 15.4385 11.2805 15.4385C11.7666 15.4385 12.1613 15.044 12.1613 14.5582C12.1613 14.0724 11.7666 13.6779 11.2805 13.6779C10.7943 13.6779 10.3996 14.0724 10.3996 14.5582ZM10.3996 10.9415C10.3996 11.4273 10.7943 11.8218 11.2805 11.8218C11.7666 11.8218 12.1613 11.4273 12.1613 10.9415C12.1613 10.4557 11.7666 10.0612 11.2805 10.0612C10.7943 10.0612 10.3996 10.4557 10.3996 10.9415ZM15.6888 14.5582C15.6888 15.044 16.0835 15.4385 16.5696 15.4385C17.0557 15.4385 17.4504 15.044 17.4504 14.5582C17.4504 14.0724 17.0557 13.6779 16.5696 13.6779C16.0835 13.6779 15.6888 14.0724 15.6888 14.5582ZM15.6888 10.9415C15.6888 11.4273 16.0835 11.8218 16.5696 11.8218C17.0557 11.8218 17.4504 11.4273 17.4504 10.9415C17.4504 10.4557 17.0557 10.0612 16.5696 10.0612C16.0835 10.0612 15.6888 10.4557 15.6888 10.9415Z" fill="#4D4C4C"/>
</svg>
