<svg width="12" height="6" viewBox="0 0 12 6" fill="none" xmlns="http://www.w3.org/2000/svg">
<g clip-path="url(#clip0_173_2985)">
<path d="M0.650853 -3.84197e-08C0.815831 -2.39968e-08 0.985151 0.0587463 1.11105 0.172323L5.99962 4.58225L10.8882 0.172324C11.1443 -0.0587464 11.5568 -0.0587464 11.8086 0.172324C12.0604 0.403395 12.0647 0.775457 11.8086 1.00261L6.45983 5.82768C6.33826 5.93734 6.17328 6 5.99962 6C5.82596 6 5.66098 5.93734 5.53942 5.82768L0.190649 1.00261C-0.0655008 0.77154 -0.0655007 0.399477 0.19065 0.172323C0.316554 0.0587463 0.485875 -5.28425e-08 0.650853 -3.84197e-08Z" fill="#0066B1"/>
</g>
<defs>
<clipPath id="clip0_173_2985">
<rect width="12" height="6" fill="white" transform="translate(12 6) rotate(-180)"/>
</clipPath>
</defs>
</svg>
