<svg width="19" height="19" viewBox="0 0 19 19" fill="none" xmlns="http://www.w3.org/2000/svg">
<path fill-rule="evenodd" clip-rule="evenodd" d="M17.9634 18.8218C18.0808 18.9393 18.2387 19 18.3926 19C18.5465 19 18.7044 18.9393 18.8218 18.8218C19.0607 18.587 19.0607 18.2023 18.8218 17.9634L10.3589 9.50051L18.8218 1.03762C19.0607 0.80276 19.0607 0.418083 18.8218 0.179178C18.587 -0.0597261 18.2023 -0.0597261 17.9634 0.179178L9.50051 8.64207L1.03762 0.179178C0.798711 -0.0597261 0.418083 -0.0597261 0.179178 0.179178C-0.0597261 0.414034 -0.0597261 0.80276 0.179178 1.03762L8.64207 9.50051L0.179178 17.9634C-0.0597261 18.1983 -0.0597261 18.5829 0.179178 18.8218C0.296606 18.9393 0.454526 19 0.608397 19C0.762268 19 0.920188 18.9393 1.03762 18.8218L9.50051 10.3589L17.9634 18.8218Z" fill="#0066B1"/>
</svg>
