<svg width="23" height="22" viewBox="0 0 23 22" fill="none" xmlns="http://www.w3.org/2000/svg">
<path fill-rule="evenodd" clip-rule="evenodd" d="M11.6067 16.8801C11.3079 16.8801 11.0363 16.7288 10.8849 16.469L10.0298 15.0453H4.7059L1.45114 20.9547H21.581L18.5086 15.0453H13.1898L12.3324 16.4729C12.1772 16.7288 11.9094 16.884 11.6067 16.884V16.8801ZM13.8176 14L16.698 9.20416C17.8117 7.35014 17.8699 5.08886 16.8532 3.16502C15.8753 1.311 14.0592 0.131876 11.9948 0.0116361C11.7387 -0.00387871 11.4787 -0.00387871 11.2225 0.0116361C9.15809 0.131876 7.34199 1.30712 6.36409 3.16114C5.34739 5.08498 5.4056 7.34238 6.51932 9.20028L9.40205 14H4.37616C4.17443 14 3.98823 14.1045 3.89512 14.2762L0.0623418 21.231C-0.0268828 21.3952 -0.0191241 21.5894 0.0778592 21.7462C0.174842 21.9029 0.353292 22 0.543379 22H22.45L22.4577 21.9963C22.6439 21.9963 22.8224 21.9029 22.9194 21.7499C23.0163 21.5968 23.028 21.4027 22.9426 21.2422L19.3271 14.2874C19.234 14.112 19.0478 14 18.8422 14H13.8176ZM11.6067 1.08604C11.4981 1.08604 11.3894 1.08604 11.2846 1.09379C9.60435 1.19076 8.12198 2.15268 7.32259 3.66925C6.48439 5.25564 6.53096 7.11742 7.45065 8.64563L11.6106 15.5691L15.7705 8.64563C16.6902 7.11742 16.7368 5.25952 15.8986 3.66925C15.0992 2.15268 13.6168 1.19076 11.9366 1.09379C11.8279 1.08604 11.7231 1.08604 11.6145 1.08604H11.6067ZM11.6067 7.92809C10.2175 7.92809 9.08436 6.7955 9.08436 5.40693C9.08436 4.01835 10.2175 2.88577 11.6067 2.88577C12.9959 2.88577 14.1291 4.01835 14.1291 5.40693C14.1291 6.7955 12.9959 7.92809 11.6067 7.92809ZM11.6067 3.96793C10.8151 3.96793 10.167 4.61179 10.167 5.40693C10.167 6.20206 10.8112 6.84593 11.6067 6.84593C12.4022 6.84593 13.0464 6.20206 13.0464 5.40693C13.0464 4.61179 12.4022 3.96793 11.6067 3.96793Z" fill="#4D4C4C"/>
</svg>
