<svg width="23" height="22" viewBox="0 0 23 22" fill="none" xmlns="http://www.w3.org/2000/svg">
<path d="M22.9577 21.4234L19.218 13.7003C19.1526 13.5651 19.0179 13.4816 18.8755 13.4816H12.7273C12.5157 13.4816 12.3426 13.6605 12.3426 13.8793V14.0383H10.1842V13.8793C10.1842 13.6605 10.011 13.4816 9.79943 13.4816H4.34761C4.20525 13.4816 4.07444 13.5611 4.00903 13.6923L0.0461687 21.4154C-0.0884918 21.6819 0.0961854 22 0.384743 22H22.6153C22.9 22 23.0885 21.6898 22.9577 21.4234ZM11.5038 17.7726C9.58782 17.7726 8.03345 17.1085 8.03345 16.2853C8.03345 15.462 9.58782 14.7979 11.5038 14.7979C13.4199 14.7979 14.9742 15.462 14.9742 16.2853C14.9742 17.1085 13.4199 17.7726 11.5038 17.7726Z" fill="#4D4C4C"/>
<path d="M11.9617 0.0119306C11.8463 0.00397686 11.727 0 11.6116 0C11.4962 0 11.3769 0 11.2615 0.0119306C7.20626 0.254519 4.93627 4.99494 7.02543 8.594L11.3538 16.0466C11.4692 16.2455 11.7501 16.2455 11.8655 16.0466L16.1939 8.594C18.2869 4.99494 16.0169 0.254519 11.9617 0.0119306ZM11.6116 7.01518C10.5266 7.01518 9.64938 6.10448 9.64938 4.98698C9.64938 3.86949 10.5304 2.95879 11.6116 2.95879C12.6927 2.95879 13.5738 3.86949 13.5738 4.98698C13.5738 6.10448 12.6927 7.01518 11.6116 7.01518Z" fill="#4D4C4C"/>
</svg>
