<svg width="21" height="19" viewBox="0 0 21 19" fill="none" xmlns="http://www.w3.org/2000/svg">
<path fill-rule="evenodd" clip-rule="evenodd" d="M3.25631 1.78384H0.577376C0.259819 1.78384 0 2.04459 0 2.36329C0 2.68198 0.259819 2.94273 0.577376 2.94273H3.25429C3.51074 3.9691 4.43726 4.73074 5.53869 4.73074V4.7266C6.63864 4.7266 7.56415 3.967 7.82206 2.94273H20.4226C20.7402 2.94273 21 2.68198 21 2.36329C21 2.04459 20.7402 1.78384 20.4226 1.78384H7.82205C7.56413 0.759586 6.63863 0 5.53869 0C4.44014 0 3.51559 0.760631 3.25631 1.78384ZM5.53869 1.1175C4.85409 1.1175 4.29733 1.67625 4.29733 2.3633C4.29733 3.05036 4.85409 3.60911 5.53869 3.60911C6.2233 3.60911 6.78005 3.05036 6.78005 2.3633C6.78005 1.67625 6.2233 1.1175 5.53869 1.1175ZM13.0638 8.92871H0.577376C0.259819 8.92871 0 9.18946 0 9.50815C0 9.82685 0.259819 10.0876 0.577376 10.0876H13.1369C13.4422 11.0378 14.3314 11.7266 15.3788 11.7266C16.4263 11.7266 17.3155 11.0378 17.6207 10.0876H20.4226C20.7402 10.0876 21 9.82685 21 9.50815C21 9.18946 20.7402 8.92871 20.4226 8.92871H17.6938C17.4901 7.83203 16.53 7 15.3788 7C14.2276 7 13.2675 7.83203 13.0638 8.92871ZM15.3788 8.1175C14.6942 8.1175 14.1375 8.67625 14.1375 9.3633C14.1375 10.0504 14.6942 10.6091 15.3788 10.6091C16.0634 10.6091 16.6243 10.0504 16.6243 9.3633C16.6243 8.67625 16.0676 8.1175 15.3788 8.1175ZM0.577376 15.7838H3.25533C3.51325 14.7596 4.43875 14 5.53869 14C6.63863 14 7.56413 14.7596 7.82205 15.7838H20.4226C20.7402 15.7838 21 16.0446 21 16.3633C21 16.682 20.7402 16.9427 20.4226 16.9427H7.82206C7.56415 17.967 6.63864 18.7266 5.53869 18.7266C4.43874 18.7266 3.51324 17.967 3.25533 16.9427H0.577376C0.259819 16.9427 0 16.682 0 16.3633C0 16.0446 0.259819 15.7838 0.577376 15.7838ZM4.29733 16.3592C4.29733 15.6721 4.85409 15.1134 5.53869 15.1134C6.2233 15.1134 6.78005 15.6721 6.78005 16.3592C6.78005 17.0462 6.2233 17.605 5.53869 17.605C4.85409 17.605 4.29733 17.0462 4.29733 16.3592Z" fill="#4D4C4C"/>
</svg>
