<svg width="21" height="21" viewBox="0 0 21 21" fill="none" xmlns="http://www.w3.org/2000/svg">
<path fill-rule="evenodd" clip-rule="evenodd" d="M10.5018 20.2661C4.71183 20.2661 0 15.7224 0 10.1348C0 4.54717 4.71183 0 10.5018 0C16.2917 0 21.0035 4.54717 21.0035 10.1348C21.0035 15.7224 16.2917 20.2695 10.5018 20.2695V20.2661ZM10.5018 0.852808C5.19963 0.852808 0.88369 5.01792 0.88369 10.1348C0.88369 12.5131 1.81614 14.6859 3.34667 16.3303L9.43597 10.4553C9.41302 10.4553 9.39006 10.4554 9.36711 10.4554C7.31342 10.4554 5.93486 9.12501 5.93486 7.14308C5.93486 5.31807 7.47601 3.83078 9.36711 3.83078H13.4038C13.6477 3.83078 13.8456 4.02181 13.8456 4.25718C13.8456 4.49256 13.6477 4.68358 13.4038 4.68358H9.36711C7.96028 4.68358 6.81855 5.78541 6.81855 7.14308C6.81855 8.6372 7.81889 9.60258 9.36711 9.60258C9.57213 9.60258 9.78068 9.60258 9.98569 9.59917C10.0998 9.59799 10.2135 9.59683 10.3266 9.596L16.9234 3.23127C15.2193 1.7533 12.9671 0.852808 10.5018 0.852808ZM17.5539 3.83038L11.5566 9.61669C12.5934 9.67504 13.5173 9.8759 14.1815 10.51C14.7753 11.0796 15.0651 11.912 15.0651 13.0616C15.0651 14.9821 13.623 16.3739 11.6329 16.3739H6.87157C6.62767 16.3739 6.42973 16.1828 6.42973 15.9475C6.42973 15.7121 6.62767 15.5211 6.87157 15.5211H11.6329C13.1352 15.5211 14.1815 14.5113 14.1815 13.0616C14.1815 12.1508 13.9764 11.5163 13.5593 11.1172C12.9521 10.5368 11.8855 10.4524 10.6946 10.4483L3.96732 16.9389C5.68432 18.4758 7.98164 19.4167 10.5018 19.4167C15.8039 19.4167 20.1198 15.2516 20.1198 10.1348C20.1198 7.70355 19.1455 5.48719 17.5539 3.83038Z" fill="#4D4C4C"/>
</svg>
