<svg width="20" height="15" viewBox="0 0 20 15" fill="none" xmlns="http://www.w3.org/2000/svg">
<path d="M10.004 15C9.44269 15 8.88142 14.8038 8.45455 14.4115L1.49802 8.01768C0.533597 7.13127 0 5.95059 0 4.69726C0 3.44393 0.529644 2.26326 1.49407 1.37685C2.4585 0.494066 3.73913 0 5.10672 0C6.47431 0 7.75889 0.494066 8.71937 1.37685L9.99605 2.55025L11.2767 1.37321C13.2688 -0.457738 16.5099 -0.454105 18.502 1.37321C19.4664 2.25963 19.996 3.43667 20 4.69363C20 5.94696 19.4704 7.12763 18.5059 8.01405L11.5455 14.4115C11.1186 14.8038 10.5613 14.9964 10.004 14.9964V15Z" fill="#0DDEAE"/>
</svg>
