<svg width="20" height="15" viewBox="0 0 20 15" fill="none" xmlns="http://www.w3.org/2000/svg">
<path d="M10.004 15C9.44269 15 8.88142 14.8038 8.45455 14.4115L1.49802 8.01768C0.533597 7.13127 0 5.95059 0 4.69726C0 3.44393 0.529644 2.26326 1.49407 1.37685C2.4585 0.494066 3.73913 0 5.10672 0C6.47431 0 7.75889 0.494066 8.71937 1.37685L9.99605 2.55025L11.2767 1.37321C13.2688 -0.457738 16.5099 -0.454105 18.502 1.37321C19.4664 2.25963 19.996 3.43667 20 4.69363C20 5.94696 19.4704 7.12763 18.5059 8.01405L11.5455 14.4115C11.1186 14.8038 10.5613 14.9964 10.004 14.9964V15ZM5.10672 0.915476C4.00791 0.915476 2.97628 1.31146 2.19763 2.02713C1.42292 2.73916 0.996047 3.69097 0.996047 4.69726C0.996047 5.70719 1.42292 6.65536 2.20158 7.37103L9.1581 13.7648C9.62451 14.1935 10.3794 14.1935 10.8419 13.7648L17.8024 7.3674C18.581 6.65173 19.0079 5.70356 19.0079 4.69726C19.0079 3.68733 18.5771 2.73553 17.7984 2.02349C16.1937 0.548559 13.585 0.548559 11.9842 2.02349L10 3.84718L8.01976 2.02713C7.24506 1.31509 6.20949 0.919109 5.11067 0.915476H5.10672Z" fill="white"/>
</svg>
