<svg width="23" height="23" viewBox="0 0 23 23" fill="none" xmlns="http://www.w3.org/2000/svg">
<path d="M22.0442 23H15.5187C14.9914 23 14.563 22.5699 14.563 22.0406V15.6931H8.43292V22.0406C8.43292 22.5699 8.00448 23 7.47716 23H0.955759C0.428443 23 0 22.5699 0 22.0406V8.00989C0 7.68734 0.160666 7.38961 0.424324 7.21179L10.9706 0.161273C11.292 -0.0537576 11.708 -0.0537576 12.0294 0.161273L22.5757 7.21593C22.8435 7.39374 23 7.69148 23 8.01402V22.0406C23 22.5699 22.5716 23 22.0442 23ZM15.7165 21.8421H21.8465V8.1174L11.5021 1.19507L1.14938 8.1174V21.8421H7.27942V15.4946C7.27942 14.9653 7.70786 14.5352 8.23518 14.5352H14.7607C15.288 14.5352 15.7165 14.9653 15.7165 15.4946V21.8421Z" fill="#4D4C4C"/>
</svg>
