<svg width="20" height="21" viewBox="0 0 20 21" fill="none" xmlns="http://www.w3.org/2000/svg">
<path d="M10.431 21C10.2793 21 10.1237 20.9397 10.008 20.8233L0.175579 10.9237C0.0638468 10.8112 0 10.6586 0 10.498C0 10.3373 0.0638468 10.1847 0.175579 10.0723L10.008 0.176673C10.2434 -0.0602745 10.6225 -0.0602745 10.854 0.176673C11.0854 0.413621 11.0894 0.795147 10.854 1.02808L1.44453 10.498L10.854 19.9678C11.0894 20.2048 11.0894 20.5863 10.854 20.8192C10.7382 20.9357 10.5826 20.9959 10.431 20.9959V21Z" fill="#0066B1"/>
<path d="M19.4014 11.1004H0.598563C0.267358 11.1004 0 10.8313 0 10.498C0 10.1646 0.267358 9.8956 0.598563 9.8956H19.4014C19.7326 9.8956 20 10.1647 20 10.498C20 10.8313 19.7326 11.1004 19.4014 11.1004Z" fill="#0066B1"/>
</svg>
