<svg width="36" height="36" viewBox="0 0 36 36" fill="none" xmlns="http://www.w3.org/2000/svg">
<path d="M18.1273 29.1907C18.1273 29.1907 18.0951 29.1907 18.0807 29.1907C17.6942 29.1692 17.3649 28.908 17.2575 28.5393L14.9954 20.7758L7.81527 18.5781C7.45018 18.4671 7.19247 18.1378 7.17458 17.7548C7.15668 17.3718 7.3786 17.0211 7.73295 16.8743L25.0461 9.66915C25.3861 9.52956 25.7727 9.60473 26.034 9.86244C26.2953 10.1201 26.374 10.5103 26.2344 10.8467L18.9684 28.6252C18.8288 28.9688 18.4959 29.1907 18.1308 29.1907H18.1273ZM10.7503 17.5794L15.9904 19.183C16.2839 19.2724 16.5094 19.5015 16.5953 19.795L18.2669 25.5327L23.7253 12.1783L10.7503 17.5794Z" fill="#0DDEAE"/>
<path d="M17.8588 35.4223C8.25195 35.4223 0.438309 27.6051 0.438309 18.0018C0.438309 8.39849 8.25195 0.577698 17.8588 0.577698C27.4657 0.577698 35.2793 8.39491 35.2793 18.0018C35.2793 27.6087 27.4657 35.4223 17.8588 35.4223ZM17.8588 2.39241C9.25057 2.39241 2.24944 9.39354 2.24944 18.0018C2.24944 26.61 9.25057 33.6112 17.8588 33.6112C26.4671 33.6112 33.4682 26.61 33.4682 18.0018C33.4682 9.39354 26.4671 2.39241 17.8588 2.39241Z" fill="#0DDEAE"/>
</svg>
