<svg width="23" height="21" viewBox="0 0 23 21" fill="none" xmlns="http://www.w3.org/2000/svg">
<path d="M22.1812 0H4.47385C4.01942 0 3.65117 0.376 3.65117 0.84V12.74H14.8789C15.3333 12.74 15.7016 13.116 15.7016 13.58V16.712C15.7016 17.908 16.3519 18.992 17.3979 19.536C17.6682 19.676 17.774 20.012 17.6369 20.288C17.5389 20.48 17.347 20.592 17.1472 20.592C17.0649 20.592 16.9787 20.572 16.9004 20.532C15.4861 19.796 14.6086 18.332 14.6086 16.712V13.86H2.47198C2.17033 13.86 1.92352 13.608 1.92352 13.3C1.92352 12.992 2.17033 12.74 2.47198 12.74H0.822688C0.368251 12.74 0 13.116 0 13.58V16.712C0 19.076 1.88435 21 4.19963 21H18.8043C21.1196 21 23.0039 19.076 23.0039 16.712V0.84C23.0039 0.376 22.6357 0 22.1812 0ZM18.6828 10.324H8.20337C7.90172 10.324 7.65491 10.072 7.65491 9.764C7.65491 9.456 7.90172 9.204 8.20337 9.204H18.6828C18.9845 9.204 19.2313 9.456 19.2313 9.764C19.2313 10.072 18.9845 10.324 18.6828 10.324ZM18.6828 6.408H8.20337C7.90172 6.408 7.65491 6.156 7.65491 5.848C7.65491 5.54 7.90172 5.288 8.20337 5.288H18.6828C18.9845 5.288 19.2313 5.54 19.2313 5.848C19.2313 6.156 18.9845 6.408 18.6828 6.408Z" fill="#4D4C4C"/>
</svg>
