<svg width="23" height="20" viewBox="0 0 23 20" fill="none" xmlns="http://www.w3.org/2000/svg">
<path fill-rule="evenodd" clip-rule="evenodd" d="M21.907 15.9162C21.907 17.581 20.5163 18.9333 18.8043 18.9333C17.0923 18.9333 15.7016 17.5809 15.7016 15.9162V12.9333C15.7016 12.4914 15.3333 12.1333 14.8789 12.1333H4.74417V1.06667H21.907V15.9162ZM3.65117 12.1333V0.8C3.65117 0.358095 4.01942 0 4.47386 0H22.1812C22.6357 0 23.0039 0.358095 23.0039 0.8V15.9162C23.0039 18.1676 21.1196 20 18.8043 20L4.19963 20C1.88435 20 0 18.1676 0 15.9162V12.9333C0 12.4914 0.368251 12.1333 0.822688 12.1333H3.65117ZM1.093 15.9162V13.2H14.6007V15.9162C14.6007 17.1086 15.1335 18.1867 15.9758 18.9333H4.19571C2.48373 18.9333 1.093 17.5809 1.093 15.9162ZM18.6828 6.10286H8.20337C7.90171 6.10286 7.65491 5.86286 7.65491 5.56953C7.65491 5.27619 7.90171 5.03619 8.20337 5.03619H18.6828C18.9845 5.03619 19.2313 5.27619 19.2313 5.56953C19.2313 5.86286 18.9845 6.10286 18.6828 6.10286ZM8.20337 9.83238H18.6828C18.9845 9.83238 19.2313 9.59238 19.2313 9.29905C19.2313 9.00572 18.9845 8.76572 18.6828 8.76572H8.20337C7.90171 8.76572 7.65491 9.00572 7.65491 9.29905C7.65491 9.59238 7.90171 9.83238 8.20337 9.83238Z" fill="#4D4C4C"/>
</svg>
