<svg width="21" height="21" viewBox="0 0 21 21" fill="none" xmlns="http://www.w3.org/2000/svg">
<path fill-rule="evenodd" clip-rule="evenodd" d="M0 7.61838C0 11.8212 3.41933 15.2368 7.61838 15.2368C9.51325 15.2368 11.2493 14.5405 12.5841 13.3904L20.0254 20.8317C20.1357 20.942 20.284 20.999 20.4285 20.999C20.5731 20.999 20.7214 20.942 20.8317 20.8317C21.0561 20.6111 21.0561 20.2498 20.8317 20.0254L13.3904 12.5841C14.5405 11.2493 15.2368 9.51325 15.2368 7.61838C15.2368 3.41933 11.8174 0 7.61838 0C3.41933 0 0 3.41553 0 7.61838ZM1.14105 7.61838C1.14105 4.04691 4.04691 1.14105 7.61838 1.14105C11.1899 1.14105 14.0957 4.04691 14.0957 7.61838C14.0957 11.1899 11.1899 14.0957 7.61838 14.0957C4.04691 14.0957 1.14105 11.1899 1.14105 7.61838Z" fill="#4D4C4C"/>
</svg>
