<svg width="31" height="33" viewBox="0 0 31 33" fill="none" xmlns="http://www.w3.org/2000/svg">
<path fill-rule="evenodd" clip-rule="evenodd" d="M4.97109 9.58051C2.35468 9.58051 0.225883 7.45171 0.225883 4.83529C0.225883 2.21887 2.35468 0.0900803 4.97109 0.0900803C7.58751 0.0900803 9.71631 2.21887 9.71631 4.83529C9.71631 5.29815 9.64969 5.74574 9.52553 6.16899L21.7118 13.5323C22.5824 12.4523 23.9157 11.7602 25.4075 11.7602C28.024 11.7602 30.1527 13.889 30.1527 16.5055C30.1527 19.1219 28.024 21.2507 25.4075 21.2507C23.8396 21.2507 22.4469 20.4862 21.5824 19.3105L9.50997 26.7791C9.64411 27.2176 9.71631 27.6829 9.71631 28.1647C9.71631 30.7811 7.58751 32.9099 4.97109 32.9099C2.35468 32.9099 0.225883 30.7811 0.225883 28.1647C0.225883 25.5483 2.35468 23.4195 4.97109 23.4195C6.44439 23.4195 7.76307 24.0945 8.63411 25.1514L20.7963 17.6273C20.7087 17.2675 20.6623 16.8918 20.6623 16.5055C20.6623 16.0417 20.7292 15.5932 20.8538 15.1693L8.66839 7.80647C7.79788 8.88756 6.46385 9.58051 4.97109 9.58051ZM7.51474 26.7737C7.02096 25.8755 6.06515 25.2645 4.97109 25.2645C3.36995 25.2645 2.07084 26.5672 2.07084 28.1647C2.07084 29.7622 3.37359 31.065 4.97109 31.065C6.5686 31.065 7.87135 29.7622 7.87135 28.1647C7.87135 27.7057 7.76379 27.271 7.57259 26.8846C7.55053 26.8484 7.53128 26.8114 7.51474 26.7737ZM4.97109 1.93504C3.36995 1.93504 2.07084 3.23779 2.07084 4.83529C2.07084 6.4328 3.37359 7.73555 4.97109 7.73555C6.5686 7.73555 7.87135 6.4328 7.87135 4.83529C7.87135 3.23779 6.5686 1.93504 4.97109 1.93504ZM22.5073 16.5055C22.5073 14.908 23.8064 13.6052 25.4075 13.6052C27.005 13.6052 28.3078 14.908 28.3078 16.5055C28.3078 18.103 27.005 19.4057 25.4075 19.4057C23.81 19.4057 22.5073 18.103 22.5073 16.5055Z" fill="#0DDEAE"/>
</svg>
