<svg width="35" height="36" viewBox="0 0 35 36" fill="none" xmlns="http://www.w3.org/2000/svg">
<path d="M17.6141 35.1825C8.13962 35.1825 0.429779 27.4726 0.429779 17.9982C0.429779 8.52377 8.13962 0.813934 17.6141 0.813934C27.0885 0.813934 34.7983 8.52377 34.7983 17.9982C34.7983 27.4726 27.0885 35.1825 17.6141 35.1825ZM17.6141 2.63223C9.13824 2.63223 2.24449 9.52598 2.24449 18.0018C2.24449 26.4776 9.13824 33.3714 17.6141 33.3714C26.0899 33.3714 32.9836 26.4776 32.9836 18.0018C32.9836 9.52598 26.0899 2.63223 17.6141 2.63223Z" fill="#0DDEAE"/>
<path d="M32.8261 24.7023H2.40198C1.90088 24.7023 1.49641 24.2978 1.49641 23.7967C1.49641 23.2956 1.90088 22.8911 2.40198 22.8911H32.8261C33.3272 22.8911 33.7317 23.2956 33.7317 23.7967C33.7317 24.2978 33.3272 24.7023 32.8261 24.7023Z" fill="#0DDEAE"/>
<path d="M32.8261 13.1124H2.40198C1.90088 13.1124 1.49641 12.708 1.49641 12.2069C1.49641 11.7058 1.90088 11.3013 2.40198 11.3013H32.8261C33.3272 11.3013 33.7317 11.7058 33.7317 12.2069C33.7317 12.708 33.3272 13.1124 32.8261 13.1124Z" fill="#0DDEAE"/>
<path d="M17.6141 35.1825C17.3313 35.1825 17.0521 35.05 16.8731 34.8031L14.8294 31.9325C8.89843 23.5998 8.89843 12.4037 14.8294 4.07111L16.8731 1.2005C17.1631 0.792463 17.7286 0.695821 18.1366 0.989325C18.5447 1.27925 18.6413 1.84478 18.3478 2.25282L16.304 5.12343C10.8205 12.8261 10.8205 23.1775 16.304 30.8837L18.3478 33.7543C18.6377 34.1624 18.5447 34.7279 18.1366 35.0178C17.9756 35.1324 17.793 35.1861 17.6105 35.1861L17.6141 35.1825Z" fill="#0DDEAE"/>
<path d="M17.6141 35.1825C17.4315 35.1825 17.249 35.1288 17.0879 35.0143C16.6799 34.7243 16.5832 34.1588 16.8767 33.7508L18.9205 30.8801C24.404 23.1775 24.404 12.8261 18.9205 5.11984L16.8767 2.24924C16.5868 1.8412 16.6799 1.27566 17.0879 0.985739C17.4959 0.695815 18.0615 0.788877 18.3514 1.19692L20.3952 4.06753C26.3261 12.4002 26.3261 23.5963 20.3952 31.9289L18.3514 34.7995C18.176 35.0465 17.8968 35.1789 17.6105 35.1789L17.6141 35.1825Z" fill="#0DDEAE"/>
</svg>
